<svg xmlns="http://www.w3.org/2000/svg" width="99.6721" height="86.6912" x="368.75" y="30.4044" version="1.1" preserveAspectRatio="none" viewBox="19.5591983795166 30.12499237060547 160.9407958984375 139.98037719726562">
  <g transform="matrix(1 0 0 1 0 0)"><g><path d="M177.2 121c-4.4-4.5-11.6-4.5-16 0-1 1-1.8 2.2-2.4 3.6h-30.1l24.9-25.2c2.1-2.1 2.7-5.2 1.6-7.9s-3.7-4.5-6.6-4.5h-45.2c-.2-1.5-.7-2.9-1.4-4.1l31-31.4c1.7 1 3.6 1.5 5.6 1.5 2.9 0 5.8-1.1 8-3.3 4.4-4.5 4.4-11.7 0-16.2s-11.6-4.5-16 0c-3.7 3.7-4.3 9.3-1.8 13.7l-31 31.4c-4.3-2.5-9.9-1.8-13.5 1.9-2.1 2.2-3.3 5-3.3 8.1s1.2 5.9 3.3 8.1c2.1 2.1 5 3.4 8 3.3 4.5 0 8.6-2.7 10.4-6.9h46c.7 0 1 .5 1.1.7.2.5.1 1-.3 1.3l-29.2 29.5H26.7c-.5 0-.9-.3-1.1-.7-.2-.5-.1-1 .3-1.3l24.8-25.1c1.9 1.4 4.2 2.1 6.5 2.1 2.9 0 5.8-1.1 8-3.3 4.4-4.5 4.4-11.7 0-16.2s-11.6-4.5-16 0c-3.4 3.4-4.2 8.5-2.3 12.7l-25.2 25.6c-2.1 2.1-2.7 5.2-1.6 7.9s3.7 4.5 6.6 4.5h87.5l-17.7 17.9c-4.3-2.4-9.8-1.8-13.5 1.9-4.4 4.5-4.4 11.7 0 16.2 2.1 2.1 5 3.4 8 3.3 2.9 0 5.8-1.1 8-3.3 2.1-2.1 3.3-5.1 3.3-8.1 0-2-.5-4-1.5-5.7l21.9-22.2H158c.3 2.5 1.4 4.8 3.2 6.5 2.1 2.1 5 3.4 8 3.3 2.9 0 5.8-1.1 8-3.3 2.1-2.2 3.3-5 3.3-8.1 0-3.2-1.2-6.1-3.3-8.2zM88.4 92.2c-1-1-1.6-2.4-1.6-3.8s.6-2.8 1.6-3.8 2.3-1.6 3.7-1.6c2.9 0 5.3 2.4 5.3 5.3 0 1.4-.6 2.8-1.6 3.8-2 2.2-5.3 2.2-7.4.1zm46.4-54.6c1-1 2.4-1.6 3.7-1.6s2.7.5 3.7 1.6c2.1 2.1 2.1 5.5 0 7.6-2.1 2.1-5.4 2.1-7.5 0-2-2.1-2-5.5.1-7.6zM53.4 84.2c1-1 2.4-1.6 3.7-1.6s2.7.5 3.7 1.6c2.1 2.1 2.1 5.5 0 7.6-2.1 2.1-5.4 2.1-7.5 0-2-2.1-2-5.5.1-7.6zm41.4 78.2c-2.1 2.1-5.4 2.1-7.5 0-2.1-2.1-2.1-5.5 0-7.6 1-1 2.3-1.6 3.7-1.6 2.9 0 5.3 2.4 5.3 5.4 0 1.4-.5 2.7-1.5 3.8zm78.1-29.5c-2.1 2.1-5.4 2.1-7.5 0-2.1-2.1-2.1-5.5 0-7.6 1-1 2.3-1.6 3.7-1.6 2.9 0 5.3 2.4 5.3 5.4.1 1.4-.5 2.8-1.5 3.8z" data-color="1" class="a3wT-cZ0ycolors-025579cfc-0089-4f90-a4ed-27db8069a953"></path></g></g>
</svg>