<svg version="1.1" id="Content" xmlns="http://www.w3.org/2000/svg" x="0" y="0" viewBox="0 0 523.13 116.175" style="enable-background:new 0 0 523.13007 116.1752" xml:space="preserve"><style>.st0{fill:#003e7e}.st1{fill:#6d6e71}</style><path class="st0" d="M148.21 18.51h13l2.7 52h-10.94l-.07-11h-13.84l-4.73 11h-10.9l24.78-52zm-5.49 32.38h10.19l-.06-23.31h-.15l-9.98 23.31zM178.62 18.51h10l-11 52h-10l11-52zM196.06 18.51h10l-11 52h-10l11-52zM214.56 52.41l-.66 3.17c-1 4.58-.7 9.08 3 9.08 3.34 0 5.27-2.53 6.87-7.34h9c-2.3 9.09-7.74 14.19-17.2 14.19-14.56 0-12.77-11.2-10.69-21 2.23-10.47 6.34-20.2 19.87-20.2 11.71 0 12.66 7.84 10.1 19.84l-.47 2.25-19.82.01zm11.52-6c1.05-6 1-9.32-3.11-9.32s-6.05 4.15-6.82 7.79l-.32 1.53h10.25zM244.13 31.33h9.61l-1 4.59h.14a13.61 13.61 0 0 1 11.18-5.6c6.25 0 9.24 3.4 7.59 11.12l-6.16 29h-10l5.74-27c.83-3.86-.17-5.43-3.17-5.43-3.42 0-5.76 2.11-6.69 6.48l-5.51 26h-10l8.27-39.16zM297.94 45.13l-1.82 8.59h-20.51l1.81-8.59h20.52zM310.43 18.51h17.54c8.58 0 14.08 3.21 12 13.17-1.19 5.6-4.78 9.91-10.26 11.34v.17c5.57.79 8.36 5.15 6.88 12.06-1.72 8.16-7.22 15.22-19.45 15.22H299.4l11.03-51.96zm5.95 21.32h3c5.74 0 8.79-2 9.82-6.83s-1-6.77-6.13-6.77h-3.78l-2.91 13.6zm-4.87 22.92h4.08c5 0 8.82-1.81 10.1-7.86s-1.76-7.79-6.35-7.79h-4.51l-3.32 15.65zM347.86 31.33h9.61l-1.12 5.25h.15c2.84-3.78 6.2-6.24 10.35-6.24a12.13 12.13 0 0 1 1.8.14l-2.06 9.59c-1-.08-2.08-.14-3.08-.14a8.74 8.74 0 0 0-8.93 7.06l-5 23.5h-10l8.28-39.16zM369.45 43.33l.2-1c1.92-9 8.76-12.06 16.32-12.06 11.94 0 13.13 4.92 11.63 12l-4.37 20.58c-.77 3.64-.91 5.32-.37 7.58h-9.59a14.18 14.18 0 0 1-.38-4.08h-.15c-3.2 4.08-6.25 5.1-11.05 5.1-7 0-8.19-6-7.08-11.2 1.57-7.37 5.18-10.33 12.49-12.24l5.96-1.43c3.17-.82 4.42-2 5-4.59.63-3-.29-4.8-3.64-4.8-3.05 0-5.09 2-5.74 5.1l-.24 1.09-8.99-.05zm16.73 7.56a15.38 15.38 0 0 1-4.71 2c-4.26.87-6.28 2.85-7 6.34-.63 3-.06 5.45 2.63 5.45a7.68 7.68 0 0 0 7.47-6l1.61-7.79zM419.7 66.31h-.13c-3 3.66-6.05 5.18-10 5.18-8.23 0-10.74-6-7.64-20.6s8.17-20.57 16.39-20.57c3.78 0 6 1.52 7.44 4.63h.15l3.5-16.44h10l-11 52h-9.61l.9-4.2zm-5.19-2.53c4.43 0 6.24-4.38 8-12.89s1.87-12.88-2.58-12.88-6.16 4.37-8 12.88-1.78 12.89 2.58 12.89zM446.52 18.51h10l-11 52h-10.04l11.04-52zM465 52.41l-.64 3.17c-1 4.58-.72 9.08 3 9.08 3.34 0 5.26-2.53 6.86-7.34h9c-2.29 9.09-7.75 14.19-17.2 14.19-14.55 0-12.75-11.2-10.67-21 2.23-10.47 6.33-20.2 19.85-20.2 11.73 0 12.68 7.84 10.13 19.84l-.49 2.25-19.84.01zm11.53-6c1.06-6 1-9.32-3.12-9.32-4 0-6 4.15-6.81 7.79l-.32 1.53h10.25zM485.14 75.77a14.54 14.54 0 0 0 2.57.21c3.7 0 5.52-2 6.55-5.51l-2.66-39.14h10.46l.08 27.05h.15l10.84-27h10l-17.22 36.51c-6.36 13.54-9 15.43-18.33 15.43h-4.02l1.58-7.55z"/><g><path class="st0" d="M37.11 71.59h1.31l-.65-3.61zM23.41 67.64h1.69v5.68h-1.69z"/><path class="st0" d="M75.14 61.85H7.23a1.5 1.5 0 0 0-1.06 2.56l13.68 13.68a14.6 14.6 0 0 0 10.33 4.28h22a14.6 14.6 0 0 0 10.33-4.28l13.68-13.68a1.5 1.5 0 0 0-1.05-2.56zM26.5 73.41a1 1 0 0 1-.83 1c.108.341.377.607.72.71v.41h-.9a2.68 2.68 0 0 1-1.32-1.1H23a1 1 0 0 1-1-1v-5.85a1 1 0 0 1 1-1h2.51a1 1 0 0 1 1 1l-.01 5.83zm6.82 0a1 1 0 0 1-1 1h-2.5a1 1 0 0 1-1-1v-6.83h1.39v6.74h1.69v-6.74h1.4l.02 6.83zm5.77 1-.4-1.73h-1.84l-.4 1.73h-1.39l1.77-7.83h1.88l1.81 7.82-1.43.01zm6.72 0h-3.48v-7.83h1.4v6.52h2.08v1.31zm3.08 0h-1.4v-7.83h1.4v7.83zm5.23-6.74H53v6.74h-1.4v-6.74h-1.12v-1.09h3.64v1.09zm4.71 3.12v3.62h-1.3v-3.62l-2.16-4.21h1.56l1.25 2.72 1.25-2.72h1.56l-2.16 4.21zM61.41 36.74h-6.8v-3.36h5.16a2.3 2.3 0 0 0 2.09-2V24.5a2.43 2.43 0 0 0-2.54-2.18h-7.89v26.26H61.5a3.18 3.18 0 0 0 2.56-2.59v-6.62a3.16 3.16 0 0 0-2.65-2.63z"/><path class="st0" d="M78.58 20.32 62.06 3.79A13 13 0 0 0 52.9 0H29.49a13 13 0 0 0-9.16 3.79L3.8 20.32A13 13 0 0 0 0 29.49v24.26a5.2 5.2 0 0 0 5.2 5.2H77.16a5.21 5.21 0 0 0 5.21-5.21V29.49a13 13 0 0 0-3.79-9.17zM31.39 51.97s.33-.71-.49-2.84l-2.5-6.5h-8.52v-3.35h7.34l-5.56-14.57-9 24.72a4.49 4.49 0 0 0-.09 2.54H7.3c.25 0 1-.47 2-3.35L19.81 18.8h7l12.18 31.36s.62 1.6 1.29 1.81h-8.89zm10.37-15.14h-4.9v-3.36h4.9v3.36zm29.3 9.35a5.8 5.8 0 0 1-5.8 5.8H43.72c1-1 .82-3.35.82-3.35V23.11c0-3.41-1.09-4.31-1.09-4.31h20.61a5.46 5.46 0 0 1 5.18 5.45v6.07a4.31 4.31 0 0 1-4.31 4.32h.46a5.65 5.65 0 0 1 5.67 5.65v5.89z"/></g><g><path class="st1" d="M250.85 106.17a9.66 9.66 0 0 1-.31 2.79 4 4 0 0 1-4 3 3.55 3.55 0 0 1-1.61-.35 3.12 3.12 0 0 1-1.21-1h-.07c-.07 0 0 0 0 .05v.95a.2.2 0 0 1-.22.22h-1.13a.19.19 0 0 1-.21-.22V96.58c0-.15.07-.22.21-.22h1.13a.2.2 0 0 1 .22.22v5.19a.06.06 0 0 0 0 .06h.08a3.15 3.15 0 0 1 1.21-1 3.56 3.56 0 0 1 1.61-.36 4.19 4.19 0 0 1 2.62.81 4.09 4.09 0 0 1 1.45 2.21c.182.881.26 1.78.23 2.68zm-1.65 1.62a11.26 11.26 0 0 0 .09-1.62 9.25 9.25 0 0 0-.12-1.69 3.81 3.81 0 0 0-.39-1.09 2.51 2.51 0 0 0-2.44-1.6 2.33 2.33 0 0 0-1.44.45 2.41 2.41 0 0 0-.87 1.2 4 4 0 0 0-.32 1.06 10.213 10.213 0 0 0-.1 1.67 9.997 9.997 0 0 0 .1 1.64c.06.344.16.68.3 1 .168.49.473.92.88 1.24a2.35 2.35 0 0 0 1.47.46 2.81 2.81 0 0 0 1.6-.46 2.42 2.42 0 0 0 .93-1.26 3.61 3.61 0 0 0 .31-1zM253.19 115.92v-.88a.19.19 0 0 1 .22-.22h.08a3.51 3.51 0 0 0 1.34-.25 2 2 0 0 0 .81-.86 11.6 11.6 0 0 0 .74-1.91v-.13l-3.72-10.83v-.09c0-.1.06-.15.19-.15h1.17a.27.27 0 0 1 .27.18l2.86 8.89a.05.05 0 0 0 .06 0 .08.08 0 0 0 .07 0l2.78-8.89a.25.25 0 0 1 .26-.18h1.15c.16 0 .22.08.17.24l-4.07 11.87a10.74 10.74 0 0 1-1 2.18 2.51 2.51 0 0 1-1.16 1 5.3 5.3 0 0 1-1.95.28h-.15c-.07-.03-.12-.1-.12-.25zM276.12 111.58l-2.75-6.1a.14.14 0 0 0-.13-.09h-2.05a.1.1 0 0 0-.11.11v6a.25.25 0 0 1-.07.19.29.29 0 0 1-.19.08h-2.58a.25.25 0 0 1-.18-.08.22.22 0 0 1-.08-.19V96.58a.25.25 0 0 1 .08-.19.24.24 0 0 1 .18-.07h6.3a5.22 5.22 0 0 1 2.48.57 4 4 0 0 1 1.65 1.63 5 5 0 0 1 .58 2.44 4.36 4.36 0 0 1-.75 2.57 4 4 0 0 1-2.09 1.5.13.13 0 0 0-.07.16l3 6.23a.3.3 0 0 1 0 .13c0 .12-.08.18-.24.18h-2.71a.33.33 0 0 1-.27-.15zm-5-12.44v3.76c0 .08 0 .12.11.12h2.83a2.16 2.16 0 0 0 1.51-.55c.386-.378.597-.9.58-1.44a2 2 0 0 0-.58-1.44 2.12 2.12 0 0 0-1.51-.56h-2.89a.1.1 0 0 0-.11.07l.06.04zM283.95 111.28a5.11 5.11 0 0 1-2-2 5.76 5.76 0 0 1-.72-2.91v-4.69a5.71 5.71 0 0 1 .72-2.89 5.18 5.18 0 0 1 2-2 6.39 6.39 0 0 1 3-.69 6.47 6.47 0 0 1 3.05.69 5.08 5.08 0 0 1 2 2 5.62 5.62 0 0 1 .73 2.89v4.71a5.77 5.77 0 0 1-.73 2.93 5 5 0 0 1-2 2 6.47 6.47 0 0 1-3.05.69 6.39 6.39 0 0 1-3-.73zm5-2.74a2.82 2.82 0 0 0 .74-2v-4.85a2.86 2.86 0 0 0-.73-2 2.58 2.58 0 0 0-2-.78 2.55 2.55 0 0 0-1.9.67 2.86 2.86 0 0 0-.74 2v4.85a2.82 2.82 0 0 0 .74 2 2.55 2.55 0 0 0 1.95.78 2.61 2.61 0 0 0 1.93-.63l.01-.04zM297.56 111.24a4.84 4.84 0 0 1-2-1.88 5.47 5.47 0 0 1-.7-2.8v-5.08a5.47 5.47 0 0 1 .7-2.8 4.82 4.82 0 0 1 2-1.87 7.3 7.3 0 0 1 6 0 4.77 4.77 0 0 1 2 1.78 5 5 0 0 1 .71 2.68c0 .13-.09.21-.26.24l-2.58.15c-.15 0-.22-.08-.22-.24a2.49 2.49 0 0 0-.72-1.87 2.54 2.54 0 0 0-1.88-.7 2.57 2.57 0 0 0-1.9.7 2.49 2.49 0 0 0-.72 1.87v5.31a2.44 2.44 0 0 0 .72 1.84 2.58 2.58 0 0 0 1.9.71 2.55 2.55 0 0 0 1.88-.71 2.44 2.44 0 0 0 .72-1.84c0-.17.09-.24.26-.24l2.58.1a.29.29 0 0 1 .18.07c.05.033.08.09.08.15a5.1 5.1 0 0 1-.71 2.69 4.84 4.84 0 0 1-2 1.81 6.67 6.67 0 0 1-3 .63 6.49 6.49 0 0 1-3.04-.7zM308.63 111.66a.22.22 0 0 1-.08-.19V96.58a.25.25 0 0 1 .08-.19.24.24 0 0 1 .18-.07h2.58a.24.24 0 0 1 .26.26v6.16c0 .05 0 .08.05.08h.09l5.08-6.32a.43.43 0 0 1 .33-.15h2.91c.11 0 .19 0 .22.1a.27.27 0 0 1 0 .23l-4.91 6.27a.14.14 0 0 0 0 .16l5.2 8.34a.8.8 0 0 1 0 .15c0 .11-.07.16-.22.16h-2.9a.31.31 0 0 1-.31-.18l-3.92-6.34a.08.08 0 0 0-.07 0 .12.12 0 0 0-.09 0l-1.38 1.74a.36.36 0 0 0-.05.13v4.38a.25.25 0 0 1-.07.19.29.29 0 0 1-.19.08h-2.58a.25.25 0 0 1-.21-.1zM325.43 111.52l-3.89-14.94v-.08c0-.14.09-.2.25-.2h2.73a.27.27 0 0 1 .28.22l2.09 9c0 .06 0 .09.07.09s.05 0 .07-.09l2-8.94a.29.29 0 0 1 .29-.24h2.66a.29.29 0 0 1 .31.22l2.2 9s0 .07.07.07.05 0 .06-.07l2-8.94a.28.28 0 0 1 .29-.24h2.59c.21 0 .29.09.25.28l-3.62 14.91a.29.29 0 0 1-.3.22h-2.62a.28.28 0 0 1-.29-.22l-2.25-9.53c0-.06-.02-.09-.06-.09-.06 0-.05 0-.07.09l-2.09 9.51a.26.26 0 0 1-.278.24h-2.452a.3.3 0 0 1-.29-.27zM352.12 98.91a.22.22 0 0 1-.18.08h-7.22a.1.1 0 0 0-.11.11v3.41c0 .08 0 .11.11.11h4.73c.071 0 .14.03.19.08.05.05.075.12.07.19v2.13a.25.25 0 0 1-.07.19.27.27 0 0 1-.19.08h-4.73c-.08 0-.11 0-.11.11v3.56c0 .08 0 .11.11.11h7.22a.25.25 0 0 1 .18.08.24.24 0 0 1 .08.19v2.13a.22.22 0 0 1-.08.19.25.25 0 0 1-.18.08h-10.17a.27.27 0 0 1-.27-.27V96.58a.29.29 0 0 1 .08-.19.25.25 0 0 1 .19-.07h10.17a.24.24 0 0 1 .18.07.25.25 0 0 1 .08.19v2.14a.22.22 0 0 1-.08.19zM354.44 111.66a.26.26 0 0 1-.08-.19V96.58a.29.29 0 0 1 .08-.19.24.24 0 0 1 .18-.07h2.58a.24.24 0 0 1 .26.26v12.37a.1.1 0 0 0 .11.11h7.2c.15 0 .27.12.27.27v2.13a.26.26 0 0 1-.08.19.27.27 0 0 1-.19.08h-10.15a.25.25 0 0 1-.18-.07zM367.06 111.66a.26.26 0 0 1-.08-.19V96.58a.29.29 0 0 1 .08-.19.25.25 0 0 1 .19-.07h2.57a.25.25 0 0 1 .19.07.29.29 0 0 1 .08.19v12.37c0 .08 0 .11.11.11h7.19a.26.26 0 0 1 .19.08c.05.05.08.119.08.19v2.13c0 .15-.12.27-.27.27h-10.17a.26.26 0 0 1-.16-.07zM393.46 111.52l-.66-2.16c0-.06-.07-.09-.11-.09h-5.42s-.08 0-.11.09l-.64 2.16a.28.28 0 0 1-.28.22h-2.8a.26.26 0 0 1-.2-.08.25.25 0 0 1 0-.23l4.74-14.85a.27.27 0 0 1 .28-.22h3.46a.29.29 0 0 1 .29.22l4.75 14.88a.2.2 0 0 1 0 .11c0 .13-.08.2-.24.2h-2.8a.28.28 0 0 1-.26-.25zm-5.4-4.65h3.88c.09 0 .11 0 .09-.13l-2-6.54c0-.06 0-.08-.06-.08s0 0-.07.08l-1.93 6.54c-.03.09 0 .13.09.13zM401.06 111.25a4.8 4.8 0 0 1-2-1.86 5.26 5.26 0 0 1-.72-2.76V96.58a.29.29 0 0 1 .08-.19.24.24 0 0 1 .18-.07h2.58a.26.26 0 0 1 .19.07.28.28 0 0 1 .07.19v10.06a2.6 2.6 0 0 0 5.2 0V96.58a.29.29 0 0 1 .08-.19.24.24 0 0 1 .18-.07h2.58a.24.24 0 0 1 .26.26v10a5.35 5.35 0 0 1-.71 2.76 4.88 4.88 0 0 1-2 1.86 7.06 7.06 0 0 1-6 0l.03.05zM423.06 96.4a.28.28 0 0 1 .07.19v2.16a.24.24 0 0 1-.26.26h-3.94a.1.1 0 0 0-.11.11v12.35c0 .15-.12.27-.27.27h-2.57a.27.27 0 0 1-.19-.08.25.25 0 0 1-.07-.19V99.12a.1.1 0 0 0-.11-.11h-3.83a.25.25 0 0 1-.19-.07.27.27 0 0 1-.08-.19v-2.17a.29.29 0 0 1 .08-.19.25.25 0 0 1 .19-.07h11.09a.26.26 0 0 1 .19.08zM426.97 111.28a5 5 0 0 1-2-2 5.67 5.67 0 0 1-.73-2.91v-4.69a5.62 5.62 0 0 1 .73-2.89 5.08 5.08 0 0 1 2-2 7 7 0 0 1 6.08 0 5.08 5.08 0 0 1 2 2 5.62 5.62 0 0 1 .73 2.89v4.71a5.77 5.77 0 0 1-.73 2.93 5 5 0 0 1-2 2 7 7 0 0 1-6.08 0v-.04zm5-2.74a2.79 2.79 0 0 0 .75-2v-4.85a2.86 2.86 0 0 0-.74-2 2.58 2.58 0 0 0-2-.78 2.55 2.55 0 0 0-1.92.67 2.86 2.86 0 0 0-.73 2v4.85a2.82 2.82 0 0 0 .73 2 2.55 2.55 0 0 0 1.95.78 2.59 2.59 0 0 0 1.95-.63l.01-.04zM448.4 96.33h2.58a.24.24 0 0 1 .18.07.29.29 0 0 1 .08.19v14.88a.26.26 0 0 1-.08.19.25.25 0 0 1-.18.08h-2.58a.25.25 0 0 1-.18-.08.22.22 0 0 1-.08-.19v-9.7c0-.06 0-.09-.05-.09s0 0-.09.06l-2.33 3.66a.34.34 0 0 1-.31.17h-1.3a.34.34 0 0 1-.3-.17l-2.34-3.66s-.06-.06-.08 0 0 0 0 .1v9.68a.25.25 0 0 1-.07.19.29.29 0 0 1-.19.08h-2.58a.29.29 0 0 1-.19-.08.25.25 0 0 1-.07-.19V96.58a.24.24 0 0 1 .26-.26h2.56a.37.37 0 0 1 .31.17l3.3 5.13c0 .09.09.09.13 0l3.32-5.13a.37.37 0 0 1 .28-.16zM463.44 111.52l-.66-2.16c0-.06-.07-.09-.11-.09h-5.42s-.08 0-.11.09l-.64 2.16a.28.28 0 0 1-.28.22h-2.8a.26.26 0 0 1-.2-.08.25.25 0 0 1 0-.23l4.74-14.85a.26.26 0 0 1 .28-.22h3.46a.27.27 0 0 1 .28.22l4.76 14.88a.36.36 0 0 1 0 .11c0 .13-.08.2-.24.2h-2.8a.28.28 0 0 1-.26-.25zm-5.38-4.65h3.88c.08 0 .11 0 .08-.13l-2-6.54c0-.06 0-.08-.06-.08s-.05 0-.07.08l-1.94 6.54c-.03.09 0 .13.11.13zM477.62 96.4a.25.25 0 0 1 .08.19v2.16a.24.24 0 0 1-.08.19.24.24 0 0 1-.18.07h-3.94a.1.1 0 0 0-.11.11v12.35c0 .15-.12.27-.27.27h-2.57a.27.27 0 0 1-.27-.27V99.12a.1.1 0 0 0-.11-.11h-3.83a.24.24 0 0 1-.18-.07.24.24 0 0 1-.08-.19v-2.17a.25.25 0 0 1 .08-.19.24.24 0 0 1 .18-.07h11.1a.24.24 0 0 1 .18.08zM479.76 111.66a.26.26 0 0 1-.08-.19V96.58a.29.29 0 0 1 .08-.19.25.25 0 0 1 .19-.07h2.57a.25.25 0 0 1 .19.07.29.29 0 0 1 .08.19v14.88c0 .15-.12.27-.27.27h-2.57a.26.26 0 0 1-.19-.07zM487.93 111.28a5.05 5.05 0 0 1-2-2 5.77 5.77 0 0 1-.73-2.91v-4.69a5.72 5.72 0 0 1 .73-2.89 5.11 5.11 0 0 1 2-2 6.38 6.38 0 0 1 3-.69 6.44 6.44 0 0 1 3.05.69 5 5 0 0 1 2 2 5.72 5.72 0 0 1 .73 2.89v4.71a5.87 5.87 0 0 1-.73 2.93 5 5 0 0 1-2 2 7 7 0 0 1-6.07 0l.02-.04zm5-2.74a2.79 2.79 0 0 0 .75-2v-4.85a2.82 2.82 0 0 0-.74-2 2.84 2.84 0 0 0-3.91 0 2.82 2.82 0 0 0-.74 2v4.85a2.78 2.78 0 0 0 .74 2 2.55 2.55 0 0 0 1.94.78 2.59 2.59 0 0 0 1.94-.74l.02-.04zM508.06 96.4a.25.25 0 0 1 .19-.07h2.57a.26.26 0 0 1 .19.07.28.28 0 0 1 .07.19v14.88a.25.25 0 0 1-.07.19.27.27 0 0 1-.19.08h-2.49a.3.3 0 0 1-.3-.18l-5.71-9.42s-.06-.06-.08-.06-.05 0-.05.1l.05 9.29c0 .15-.12.27-.27.27h-2.57a.27.27 0 0 1-.27-.27V96.58a.29.29 0 0 1 .08-.19.25.25 0 0 1 .19-.07h2.48a.32.32 0 0 1 .31.17l5.68 9.38s.06.07.09.06 0 0 0-.1v-9.25a.29.29 0 0 1 .1-.18z"/></g></svg>