<svg xmlns="http://www.w3.org/2000/svg" xmlns:xlink="http://www.w3.org/1999/xlink" width="139.935" height="30" viewBox="0 0 139.935 30"><defs><clipPath id="a"><rect width="139.935" height="30" fill="#fe5e01"/></clipPath></defs><g transform="translate(0 0)"><g transform="translate(0 0)" clip-path="url(#a)"><path d="M9.658,20.366l1.068-6.658c.3-1.793.491-3.617.716-5.4h.081c.191,1.785.339,3.608.574,5.4l.83,6.658Zm12.772,9.789L16.354,1.46H6.883L0,30.154H7.982l.647-3.695h5.211l.57,3.695Z" transform="translate(0 -0.643)" fill="#fe5e01"/><path d="M49.432,17.84V28.073c0,2.4.154,3.47,1.446,3.47,1.329,0,1.477-1.029,1.477-3.47V17.84h7.459V29.107c0,5.936-3.463,8.678-8.936,8.678-5.781,0-8.9-3.195-8.9-8.678V17.84Z" transform="translate(-18.49 -7.859)" fill="#fe5e01"/><path d="M153.864,37.017V26.744c0-2.4-.149-3.46-1.445-3.46-1.328,0-1.479,1.023-1.479,3.46V37.017h-7.458v-11.3c0-5.941,3.467-8.679,8.937-8.679,5.786,0,8.9,3.2,8.9,8.679v11.3Z" transform="translate(-63.203 -7.506)" fill="#fe5e01"/><path d="M82,33.253V19.718H79.084V13.743H82V8.494h7.454v5.249h2.86v5.975h-2.86V33.253Z" transform="translate(-34.836 -3.742)" fill="#fe5e01"/><path d="M114.946,22.112c2.607,0,3,2.561,3,4.425s-.393,4.43-3,4.43-3.007-2.562-3.007-4.43.388-4.425,3.007-4.425m0-6.043c-6.439,0-9.357,4.841-9.357,10.467s2.918,10.469,9.357,10.469c6.423,0,9.348-4.835,9.348-10.469s-2.925-10.467-9.348-10.467" transform="translate(-46.512 -7.079)" fill="#fe5e01"/><rect width="7.457" height="19.509" transform="translate(100.886 10.002)" fill="#fe5e01"/><path d="M179.809,4.013a4.03,4.03,0,1,1,4.049,4.047,4.026,4.026,0,0,1-4.049-4.047" transform="translate(-79.205 0)" fill="#fe5e01"/><path d="M210.207,36.544c-5.524.99-12.782-.906-12.782-10.1,0-9.4,7.973-11.325,12.779-10.059v6.675c-2.248-.675-5.3-.338-5.3,3.237,0,2.45,2.452,3.643,5.3,3.372Z" transform="translate(-86.965 -7.065)" fill="#fe5e01"/><path d="M224.664,29.439c2.466,1.048,5.863,1.248,5.863-.268,0-2.049-5.878-2.053-5.878-7.822,0-5.523,7.606-7.138,14.182-5.132l-.031,5.392c-2.655-.817-5.571-.694-5.571.527,0,2.727,5.664,2.071,5.664,7.666,0,6.017-6.886,8.512-14.228,6.017Z" transform="translate(-98.957 -6.779)" fill="#fe5e01"/></g></g></svg>