<svg id="logo_fujielectric_en" xmlns="http://www.w3.org/2000/svg" width="296.67" height="35.284" viewBox="0 0 296.67 35.284">
  <path id="パス_882" data-name="パス 882" d="M255.5,27.816h14.037v3.075H259.056v5.328h9.193v2.9h-9.193v9.025H255.5V27.816" transform="translate(-185.615 -20.208)"/>
  <path id="パス_883" data-name="パス 883" d="M372.6,347.244h-3.187v-2.051h-.056a4.93,4.93,0,0,1-4.18,2.45c-3.839,0-5.491-1.933-5.491-5.777v-9.331h3.241v9.022c0,2.587,1.054,3.524,2.817,3.524,2.7,0,3.61-1.732,3.61-4.008v-8.539H372.6v14.71" transform="translate(-274.617 -319.308)"/>
  <path id="パス_884" data-name="パス 884" d="M412.984,317.6h3.244v16.031c0,2.93-1.167,4.583-4.209,4.583a10.021,10.021,0,0,1-1.453-.113v-2.561a9.419,9.419,0,0,0,1.111.112c1.194,0,1.307-.709,1.307-2.163ZM416.228,312v3.074h-3.244v-3.075Z" transform="translate(-311.582 -304.386)"/>
  <path id="パス_885" data-name="パス 885" d="M447.88,317.6v14.718h-3.245V317.6Zm0-5.609v3.074h-3.245V312Z" transform="translate(-336.332 -304.386)"/>
  <path id="パス_886" data-name="パス 886" d="M449.45,27.816h14.628v3.075H453.006v5.328h10.25v2.9h-10.25V45.07h11.273v3.074H449.45V27.816" transform="translate(-326.52 -20.208)"/>
  <rect id="長方形_2592" data-name="長方形 2592" width="3.244" height="20.328" transform="translate(139.953 7.608)"/>
  <path id="パス_887" data-name="パス 887" d="M582.179,339.709c0,2.3,1.252,4.353,3.954,4.353a3.4,3.4,0,0,0,3.583-2.446h3.076a6.445,6.445,0,0,1-6.66,5.009c-4.61,0-7.2-3.216-7.2-7.74,0-4.183,2.731-7.768,7.113-7.768,4.636,0,7.484,4.183,6.941,8.594Zm7.568-2.136a3.786,3.786,0,1,0-7.568,0h7.568" transform="translate(-433.899 -318.278)"/>
  <path id="パス_888" data-name="パス 888" d="M646.78,336.435a3.106,3.106,0,0,0-3.357-2.759c-1.678,0-4.038.88-4.038,5.348,0,2.445,1.08,5.034,3.9,5.034,1.879,0,3.186-1.252,3.5-3.356h3.243c-.6,3.813-2.96,5.919-6.742,5.919-4.609,0-7.142-3.274-7.142-7.6,0-4.438,2.416-7.912,7.255-7.912,3.411,0,6.318,1.708,6.628,5.323H646.78" transform="translate(-475.458 -318.275)"/>
  <path id="パス_889" data-name="パス 889" d="M689.9,320.859h2.447v-4.411h3.242v4.411h2.931v2.417h-2.931v7.854c0,1.337.113,2.019,1.566,2.019a5.62,5.62,0,0,0,1.365-.112v2.5c-.711.055-1.395.17-2.106.17-3.384,0-4.011-1.309-4.067-3.757v-8.679H689.9v-2.416" transform="translate(-514.515 -307.622)"/>
  <path id="パス_890" data-name="パス 890" d="M768.924,317.6v14.72H765.68V317.6Zm0-5.607v3.074H765.68v-3.075Z" transform="translate(-569.568 -304.386)"/>
  <path id="パス_891" data-name="パス 891" d="M794.611,336.435a3.109,3.109,0,0,0-3.355-2.759c-1.68,0-4.044.88-4.044,5.348,0,2.445,1.082,5.034,3.9,5.034,1.877,0,3.186-1.252,3.5-3.356h3.241c-.6,3.813-2.958,5.919-6.739,5.919-4.61,0-7.142-3.274-7.142-7.6,0-4.438,2.416-7.912,7.253-7.912,3.417,0,6.318,1.708,6.629,5.323h-3.241" transform="translate(-582.855 -318.275)"/>
  <path id="パス_892" data-name="パス 892" d="M737.349,331.167a6.161,6.161,0,0,0-.965-.057,4.753,4.753,0,0,0-4.3,3.246h-.059v-2.845h-3.042v14.706h3.244v-7c0-3.243,1.762-5.037,3.979-5.037a8.593,8.593,0,0,1,1.14.109v-3.126" transform="translate(-542.91 -318.273)"/>
  <path id="パス_893" data-name="パス 893" d="M103.328,287.41a14.419,14.419,0,0,0-12-2.975,19.829,19.829,0,0,0-10.655,5.847l1.111-5.268h-21.1c-.049,0-.1,0-.146,0a5.892,5.892,0,0,0-5.65,4.643s0,0-.006.006c-.881,4.119-6.214,29.221-6.214,29.221H59.106l2.756-12.9H74.679a14.565,14.565,0,0,0,5.053,10.244,14.415,14.415,0,0,0,12,2.974,19.4,19.4,0,0,0,9.455-4.695,21.934,21.934,0,0,0,6.048-8.834l.084-.233h-2.427l-.043.107c-2.4,5.906-7.708,10.384-13.514,11.405h0a12.17,12.17,0,0,1-10.13-2.472,12.586,12.586,0,0,1-4.3-9.881c0-8.439,6.65-16.474,14.824-17.915a12.16,12.16,0,0,1,10.13,2.474,12.334,12.334,0,0,1,4.259,8.79H81.625l-.516,2.434H106.1v0h2.291l.008-.164c.029-.553.044-.942.044-1.187A14.824,14.824,0,0,0,103.328,287.41Zm-39.156,7.672h0a1.77,1.77,0,0,1,1.7-1.382v0H77.958a21.826,21.826,0,0,0-2.112,4.222H63.555Z" transform="translate(-48.667 -284.178)" fill="#005bac"/>
  <path id="パス_894" data-name="パス 894" d="M901.818,342.973a16.476,16.476,0,0,1-5.159.839c-7.834,0-8.828-5.659-8.828-8.284,0-5.336,3.858-8.52,9.277-8.52a11.026,11.026,0,0,1,4.212.688l-.615,2.044a9.2,9.2,0,0,0-3.6-.624c-3.716,0-6.39,2.13-6.39,6.3,0,4.153,2.486,6.347,6.036,6.347a6.279,6.279,0,0,0,2.415-.344v-4.648h-3.123v-2h5.774v8.2Z" transform="translate(-658.308 -315.293)" fill="#8f8f8f"/>
  <path id="パス_895" data-name="パス 895" d="M953.209,341.981h-2.745V324.725h2.745Z" transform="translate(-703.811 -313.635)" fill="#8f8f8f"/>
  <path id="パス_896" data-name="パス 896" d="M982.34,349.615a5.851,5.851,0,0,1-6.106,6.262,5.7,5.7,0,0,1-5.964-6.089,5.859,5.859,0,0,1,6.154-6.262C980,343.526,982.34,345.98,982.34,349.615Zm-6.011-4.217c-2.343,0-3.243,2.281-3.243,4.325,0,2.325,1.208,4.282,3.22,4.282,1.987,0,3.218-1.958,3.218-4.324C979.524,347.722,978.625,345.4,976.329,345.4Z" transform="translate(-718.2 -327.294)" fill="#8f8f8f"/>
  <path id="パス_897" data-name="パス 897" d="M1026.878,331.782a4.449,4.449,0,0,1,3.953-1.915c2.981,0,5.041,2.389,5.041,6,0,4.325-2.769,6.348-5.467,6.348a4.224,4.224,0,0,1-3.858-2.024h-.071l-.141,1.786h-2.343c.047-.8.095-2.087.095-3.163V324.725h2.745v7.057Zm-.048,5.508a2.927,2.927,0,0,0,2.983,2.927c2.106,0,3.266-1.7,3.266-4.239,0-2.238-1.067-4.11-3.243-4.11a3.1,3.1,0,0,0-3.006,3.1Z" transform="translate(-757.228 -313.635)" fill="#8f8f8f"/>
  <path id="パス_898" data-name="パス 898" d="M1084.026,352.82a14.669,14.669,0,0,0,.191,2.819h-2.486l-.189-1.377h-.071a4.577,4.577,0,0,1-3.645,1.614,3.522,3.522,0,0,1-3.835-3.464c0-2.948,2.817-4.411,7.29-4.411,0-.882,0-2.646-2.626-2.646a6.458,6.458,0,0,0-3.173.818l-.568-1.657a8.767,8.767,0,0,1,4.212-.99c3.835,0,4.9,2.3,4.9,4.82v4.476Zm-2.674-3.141c-2.154,0-4.64.366-4.64,2.474a1.774,1.774,0,0,0,1.917,1.894,2.558,2.558,0,0,0,2.723-2.41Z" transform="translate(-793.553 -327.292)" fill="#8f8f8f"/>
  <path id="パス_899" data-name="パス 899" d="M1126.044,341.981H1123.3V324.725h2.745Z" transform="translate(-829.375 -313.635)" fill="#8f8f8f"/>
</svg>
