<?xml version="1.0" encoding="UTF-8" standalone="no"?>
<!-- Created with Inkscape (http://www.inkscape.org/) -->
<svg xmlns:dc="http://purl.org/dc/elements/1.1/" xmlns:cc="http://creativecommons.org/ns#" xmlns:rdf="http://www.w3.org/1999/02/22-rdf-syntax-ns#" xmlns:svg="http://www.w3.org/2000/svg" xmlns="http://www.w3.org/2000/svg" xmlns:sodipodi="http://sodipodi.sourceforge.net/DTD/sodipodi-0.dtd" xmlns:inkscape="http://www.inkscape.org/namespaces/inkscape" width="206.77153mm" height="35.502026mm" viewBox="0 0 206.77153 35.502026" version="1.1" id="svg3969" inkscape:version="0.92.2 2405546, 2018-03-11" sodipodi:docname="Logo_Inovance_new.svg">
  <defs id="defs3963"></defs>
  <metadata id="metadata3966"></metadata>
  <g inkscape:label="Layer 1" inkscape:groupmode="layer" id="layer1" transform="translate(-2.1936264,-48.760429)">
    <g id="g4017" transform="matrix(0.64480639,0,0,0.64480639,36.362496,-9.4720841)">
      <path style="fill:#f9fbfc;stroke-width:0.21507196" d="M -52.990898,117.83929 V 90.310074 H 107.34524 267.68137 V 117.83929 145.3685 H 107.34524 -52.990898 Z m 94.114201,22.46209 c 9.470569,-1.69185 16.116608,-8.78179 17.627602,-18.80497 1.458083,-9.6722 -2.339724,-19.06867 -9.627704,-23.820715 -7.494085,-4.886437 -18.659042,-4.886119 -26.148628,7.52e-4 -5.027754,3.280543 -8.519288,9.012893 -9.640643,15.827863 -0.493086,2.9967 -0.29878,7.54973 0.451174,10.57207 0.582193,2.34626 2.125302,5.87326 3.345648,7.64697 1.988728,2.89052 5.578672,5.78928 8.862902,7.15651 4.336907,1.80546 10.001338,2.33767 15.129649,1.42153 z m -8.730639,-8.15828 c -2.263103,-0.50769 -4.734105,-1.85606 -6.334778,-3.45673 -4.495208,-4.49521 -5.533169,-13.19489 -2.307187,-19.33769 0.90943,-1.7317 3.020271,-4.07371 4.565064,-5.065 3.324229,-2.13315 8.720021,-2.66037 12.873172,-1.25783 5.168368,1.74538 8.628004,6.87005 8.98412,13.30793 0.350858,6.3428 -2.209905,11.85585 -6.685696,14.39362 -1.986256,1.1262 -3.81417,1.56338 -6.900792,1.65045 -1.929331,0.0544 -3.229236,-0.0183 -4.193903,-0.23475 z m 177.772256,8.15921 c 2.29699,-0.41029 4.37699,-1.1348 6.69048,-2.33044 1.96145,-1.01372 5.44579,-3.59773 5.44579,-4.03865 0,-0.3595 -5.61966,-5.98555 -5.97874,-5.98555 -0.16494,0 -0.74505,0.39185 -1.28914,0.87078 -2.31364,2.03655 -6.36974,3.43066 -9.98134,3.43066 -7.61267,0 -12.9495,-4.08867 -14.379,-11.01603 -1.48826,-7.21215 1.42167,-14.1168 7.12843,-16.91429 2.64807,-1.2981 4.12052,-1.62552 7.29404,-1.62188 3.94495,0.005 6.80595,0.92337 9.36496,3.0077 0.64212,0.52301 1.2797,0.95093 1.41683,0.95093 0.28514,0 5.63802,-5.1381 5.73485,-5.50476 0.0859,-0.32536 -2.00202,-2.208402 -3.66227,-3.302838 -5.20171,-3.428997 -11.58076,-4.592732 -18.24528,-3.328495 -11.49046,2.179702 -18.83946,12.069623 -18.19386,24.484373 0.50331,9.67854 5.62826,17.12871 13.83482,20.11172 4.48217,1.62923 9.90916,2.06383 14.81943,1.18677 z M -38.043398,117.40914 V 95.149193 l -4.355207,-0.05822 -4.355207,-0.05822 v 22.376387 22.37639 l 4.355207,-0.0582 4.355207,-0.0582 z m 16.83092,7.99402 c 0.04362,-11.25118 0.111796,-14.2479 0.322608,-14.18064 0.147014,0.0469 5.224467,6.32132 11.2832267,13.94314 7.3443649,9.23908 11.2499467,13.98335 11.7180659,14.23441 0.5382132,0.28865 1.2175911,0.37656 2.9099814,0.37656 H 7.2292466 V 117.40914 95.041657 H 2.8202717 -1.5887031 v 13.135163 c 0,11.10017 -0.04629,13.12439 -0.2987823,13.06562 -0.16433,-0.0382 -4.6963626,-5.63452 -10.0711826,-12.43618 -6.403449,-8.10334 -10.08787,-12.589067 -10.687493,-13.011851 -0.903801,-0.637255 -0.954678,-0.64607 -4.123565,-0.714478 l -3.208474,-0.06926 v 22.387429 22.38743 l 4.355207,-0.0582 4.355207,-0.0582 z m 107.480664,13.96486 c 0.473159,-0.21953 1.169009,-0.72552 1.546333,-1.1244 0.501666,-0.53033 3.232833,-6.40468 10.16215,-21.85733 5.211861,-11.62265 9.476101,-21.181693 9.476101,-21.242323 0,-0.06063 -2.24867,-0.08426 -4.99705,-0.0525 l -4.99705,0.05773 -7.127762,16.668073 c -4.095643,9.57755 -7.243844,16.66808 -7.400642,16.66808 -0.15667,0 -3.314694,-7.09836 -7.415544,-16.66808 l -7.142664,-16.668073 -4.977844,-0.05773 c -2.737814,-0.03175 -4.977844,0.002 -4.977844,0.07495 0,0.07297 4.27012,9.649803 9.489154,21.281843 6.973214,15.5417 9.667592,21.33263 10.16215,21.84111 1.167615,1.20049 2.080939,1.47782 4.866897,1.47782 1.956923,0 2.652947,-0.0833 3.333615,-0.39916 z m 48.013844,-0.0753 c -0.0948,-0.43726 -18.69421,-42.004837 -19.45034,-43.469255 -0.17654,-0.341902 -0.39919,-0.533362 -0.50021,-0.430144 -0.10014,0.102309 -1.16365,2.36362 -2.36337,5.025139 -1.97865,4.38957 -2.16027,4.89906 -1.95498,5.48433 0.12447,0.35487 1.81608,4.27456 3.75914,8.71042 3.14043,7.16937 3.49471,8.09506 3.18961,8.33404 -0.25934,0.20313 -2.14017,0.26884 -7.69577,0.26884 -5.62573,0 -7.40226,0.0631 -7.56426,0.26884 -0.23304,0.29591 -3.497171,7.54431 -3.497171,7.7659 0,0.0759 4.960101,0.13931 11.022441,0.14093 6.06234,0.002 11.2294,0.0585 11.48235,0.12634 0.34776,0.0933 0.78746,0.86625 1.80298,3.16938 0.73869,1.67528 1.57376,3.50568 1.85573,4.06756 l 0.51267,1.02159 h 4.75303 4.75303 z m 12.90682,-13.87215 c 0.0328,-8.44268 0.13556,-14.24851 0.25228,-14.24851 0.10834,0 5.19424,6.29122 11.302,13.98049 6.89867,8.68496 11.34623,14.10522 11.74177,14.30977 0.47772,0.24703 1.1864,0.31398 2.83744,0.26802 l 2.2007,-0.0613 0.0548,-22.31371 0.0548,-22.313723 h -4.40999 -4.40996 l -0.003,12.635483 c -0.003,11.93138 -0.0532,13.6033 -0.41008,13.6033 -0.0813,0 -4.58855,-5.61975 -10.01618,-12.48832 -5.42757,-6.86858 -10.11631,-12.664594 -10.41937,-12.880039 -0.98694,-0.701618 -2.16012,-0.897679 -4.95999,-0.828915 l -2.6884,0.06603 -0.0554,22.044874 c -0.0305,12.12468 -0.009,22.16787 0.0487,22.31819 0.0805,0.21131 1.09321,0.2601 4.4644,0.21507 l 4.36024,-0.0582 z m 115.97601,10.48476 v -3.87129 l -8.97925,-0.007 c -11.23943,-0.008 -13.16632,-0.22853 -15.45092,-1.76583 -1.98122,-1.33316 -3.11981,-3.45076 -3.59003,-6.67681 -0.20862,-1.43133 -0.19823,-1.71473 0.069,-1.88373 0.18358,-0.11612 5.75304,-0.2003 13.38012,-0.20222 l 13.06562,-0.003 v -4.08637 -4.08636 l -13.06562,-0.003 c -7.62708,-0.002 -13.19654,-0.0861 -13.38012,-0.20221 -0.26719,-0.169 -0.27758,-0.4524 -0.069,-1.88374 0.75471,-5.17806 3.15485,-7.54801 8.34112,-8.23622 0.82803,-0.10988 5.59456,-0.20277 10.59229,-0.20642 l 9.08679,-0.007 v -3.871297 -3.871296 l -10.48476,0.0013 c -11.15027,0.0014 -12.951,0.122742 -16.07662,1.083779 -3.63674,1.118191 -6.26124,3.198512 -7.82346,6.201294 -1.85186,3.55948 -2.44425,7.2146 -2.44425,15.08114 0,6.01311 0.24981,8.61077 1.13532,11.80632 1.30996,4.72711 4.40334,7.98436 8.91731,9.38968 3.27432,1.01938 4.80598,1.12828 16.18417,1.15066 l 10.59229,0.0208 z" id="path4021" inkscape:connector-curvature="0"></path>
      <path style="fill:#1a90cb;stroke-width:0.21507196" d="M 33.252952,140.63787 C 27.622756,140.104 22.61975,137.81454 19.229166,134.22035 17.3995,132.2808 16.66321,131.18814 15.391672,128.52546 c -1.482917,-3.10532 -2.13769,-5.92319 -2.283189,-9.82589 -0.272879,-7.31944 2.070382,-13.77156 6.686882,-18.41219 6.24382,-6.276449 17.086664,-8.098579 26.031951,-4.374646 6.800874,2.831211 11.722699,9.441746 12.913926,17.344776 1.597185,10.59629 -3.064696,20.84966 -11.351411,24.96636 -0.973633,0.48369 -2.390226,1.07903 -3.147984,1.32298 -3.041406,0.97915 -7.500097,1.42183 -10.988895,1.09102 z m 7.635054,-8.81457 c 2.960928,-0.93555 5.016471,-2.47094 6.722104,-5.02107 3.14107,-4.69629 3.484709,-12.22804 0.79148,-17.34724 -1.642406,-3.12182 -4.218372,-5.41796 -7.212655,-6.42914 -4.153151,-1.40254 -9.548943,-0.87532 -12.873172,1.25783 -1.544793,0.99129 -3.655634,3.3333 -4.565064,5.065 -1.166911,2.22199 -1.698262,4.31471 -1.828159,7.20018 -0.357097,7.9323 3.779445,14.09329 10.470124,15.59424 2.085037,0.46775 6.532709,0.30032 8.495342,-0.3198 z m 161.333104,8.80934 c -12.26027,-1.14836 -20.06953,-9.30391 -20.71044,-21.62882 -0.6456,-12.41475 6.7034,-22.304671 18.19386,-24.484373 6.66452,-1.264237 13.04357,-0.100502 18.24528,3.328495 1.66025,1.094436 3.74821,2.977478 3.66227,3.302838 -0.0968,0.36666 -5.44971,5.50476 -5.73485,5.50476 -0.13713,0 -0.77471,-0.42792 -1.41683,-0.95093 -1.37246,-1.11788 -3.32712,-2.08897 -5.2786,-2.62246 -1.9051,-0.52081 -6.23377,-0.53108 -8.17273,-0.0194 -4.71801,1.24506 -8.24582,4.45174 -9.78863,8.89764 -1.04278,3.0049 -1.22032,6.01203 -0.54747,9.2727 1.4295,6.92736 6.76633,11.01603 14.379,11.01603 3.6116,0 7.6677,-1.39411 9.98134,-3.43066 0.54409,-0.47893 1.1242,-0.87078 1.28914,-0.87078 0.35908,0 5.97874,5.62605 5.97874,5.98554 0,0.44093 -3.48434,3.02494 -5.44579,4.03866 -2.31349,1.19564 -4.39349,1.92015 -6.69048,2.33044 -2.31104,0.41279 -5.60224,0.54965 -7.94381,0.33033 z M -46.753812,117.40914 V 95.032751 l 4.355207,0.05822 4.355207,0.05822 v 22.259949 22.25995 l -4.355207,0.0582 -4.355207,0.0582 z m 16.775612,-0.011 V 95.010676 l 3.208474,0.06926 c 3.168887,0.06841 3.219764,0.07722 4.123565,0.714479 0.599623,0.422783 4.284044,4.908515 10.687493,13.011855 5.37482,6.80165 9.9068526,12.39793 10.0711826,12.43618 0.2524923,0.0588 0.2987823,-1.96546 0.2987823,-13.06563 V 95.041657 h 4.4089748 4.4089749 v 22.367483 22.36749 H 5.021404 c -1.6923903,0 -2.3717682,-0.0879 -2.9099814,-0.37656 -0.4681192,-0.25106 -4.373701,-4.99533 -11.7180659,-14.23441 -6.0587597,-7.62182 -11.1362127,-13.89623 -11.2832267,-13.94314 -0.210812,-0.0673 -0.278987,2.92946 -0.322608,14.18064 l -0.05531,14.26593 -4.355207,0.0582 -4.355207,0.0582 V 117.3981 Z m 109.579156,21.97614 c -0.473158,-0.21611 -1.163135,-0.70431 -1.533282,-1.08488 -0.494558,-0.50848 -3.188936,-6.29941 -10.16215,-21.84111 C 62.68649,104.81621 58.41637,95.239386 58.41637,95.166411 c 0,-0.07297 2.24003,-0.106702 4.977844,-0.07495 l 4.977844,0.05773 7.142664,16.668079 c 4.10085,9.56972 7.258874,16.66808 7.415544,16.66808 0.156798,0 3.304999,-7.09053 7.400642,-16.66808 l 7.127762,-16.668079 4.99705,-0.05773 c 2.74838,-0.03175 4.99705,-0.0081 4.99705,0.0525 0,0.06063 -4.26424,9.619669 -9.476101,21.242319 -6.929317,15.45265 -9.660484,21.327 -10.16215,21.85733 -1.175529,1.2427 -2.075126,1.52356 -4.879948,1.52356 -1.937968,0 -2.659539,-0.085 -3.333615,-0.39294 z m 44.767224,-0.61921 c -0.28197,-0.56188 -1.11704,-2.39228 -1.85573,-4.06756 -1.01552,-2.30313 -1.45522,-3.07606 -1.80298,-3.16938 -0.25295,-0.0679 -5.42001,-0.12473 -11.48235,-0.12634 -6.06234,-0.002 -11.022441,-0.065 -11.022441,-0.14093 0,-0.22159 3.264131,-7.46999 3.497171,-7.7659 0.162,-0.2057 1.93853,-0.26884 7.56426,-0.26884 5.5556,0 7.43643,-0.0657 7.69577,-0.26884 0.3051,-0.23898 -0.0492,-1.16467 -3.18961,-8.33404 -1.94306,-4.43586 -3.63467,-8.35555 -3.75914,-8.71042 -0.20529,-0.58527 -0.0237,-1.09476 1.95498,-5.48433 1.19972,-2.661519 2.26323,-4.92283 2.36337,-5.025139 0.10102,-0.103218 0.32367,0.08824 0.50021,0.430144 0.75613,1.464418 19.35557,43.031995 19.45034,43.469255 l 0.10488,0.48391 h -4.75303 -4.75303 z m 13.94073,0.75722 c -0.0573,-0.15032 -0.0792,-10.19351 -0.0487,-22.31819 l 0.0554,-22.044877 2.6884,-0.06603 c 2.79987,-0.06876 3.97305,0.127297 4.95999,0.828915 0.30306,0.215445 4.9918,6.011462 10.41943,12.880042 5.42763,6.86857 9.93491,12.48832 10.01619,12.48832 0.35691,0 0.40732,-1.67192 0.41007,-13.6033 l 0.003,-12.635486 h 4.40996 4.40999 l -0.0548,22.313726 -0.0548,22.31371 -2.2007,0.0613 c -1.65104,0.046 -2.35972,-0.021 -2.83744,-0.26802 -0.39554,-0.20455 -4.8431,-5.62481 -11.74177,-14.30977 -6.10776,-7.68927 -11.19366,-13.98049 -11.302,-13.98049 -0.11672,0 -0.21951,5.80583 -0.25228,14.24851 l -0.0553,14.24852 -4.36024,0.0582 c -3.37119,0.045 -4.38387,-0.004 -4.4644,-0.21507 z m 101.73572,-0.0744 c -4.28561,-0.65775 -7.18693,-2.0027 -9.38348,-4.34985 -2.1293,-2.27529 -3.24664,-5.00433 -3.97367,-9.70537 -0.49379,-3.19284 -0.49379,-12.75419 0,-15.94704 1.18782,-7.68061 4.03374,-11.500292 9.916,-13.308916 3.12562,-0.961037 4.92635,-1.08243 16.07662,-1.083779 l 10.48476,-0.0013 v 3.871296 3.871299 l -9.08679,0.007 c -4.99773,0.004 -9.76426,0.0965 -10.59229,0.20642 -5.18627,0.6882 -7.58641,3.05816 -8.34112,8.23622 -0.20862,1.43133 -0.19823,1.71474 0.069,1.88373 0.18358,0.11613 5.75304,0.2003 13.38012,0.20222 l 13.06562,0.003 v 4.08636 4.08637 l -13.06562,0.003 c -7.62708,0.002 -13.19654,0.0861 -13.38012,0.20222 -0.26719,0.169 -0.27758,0.4524 -0.069,1.88373 0.47022,3.22606 1.60881,5.34366 3.59003,6.67681 2.2846,1.5373 4.21149,1.75752 15.45092,1.76583 l 8.97925,0.007 v 3.87129 3.8713 l -10.59229,-0.0208 c -7.84277,-0.0154 -11.09475,-0.0979 -12.52794,-0.31791 z" id="path4019" inkscape:connector-curvature="0"></path>
    </g>
  </g>
</svg>
