<svg xmlns="http://www.w3.org/2000/svg" width="120" height="23.2" viewBox="0 0 120 23.2"><defs><style>.a{fill:#005eb8;}</style></defs><path class="a" d="M12.1,19.3a6.8,6.8,0,1,1,6.8-6.8,6.743,6.743,0,0,1-6.8,6.8m0,4.8A11.6,11.6,0,1,0,.5,12.5,11.739,11.739,0,0,0,12.1,24.1" transform="translate(-0.5 -0.9)"/><path class="a" d="M87.2,24.1A11.6,11.6,0,1,1,98.8,12.5,11.608,11.608,0,0,1,87.2,24.1m0-4.8a6.8,6.8,0,1,0-6.8-6.8,6.872,6.872,0,0,0,6.8,6.8" transform="translate(0.363 -0.9)"/><g transform="translate(26.001 0.559)"><path class="a" d="M26.2,1.6V23.4H31V5.6h5.3V23.5h4.8V5.6H43a3.328,3.328,0,0,1,3.3,3.3V23.3h4.8V9.1a7.534,7.534,0,0,0-7.6-7.6H31.2A41.308,41.308,0,0,0,26.2,1.6Z" transform="translate(-26.2 -1.459)"/></g><g transform="translate(101.7 0.559)"><path class="a" d="M101.1,1.6V23.4h4.8V5.6h5.4a3.328,3.328,0,0,1,3.3,3.3V23.3h4.8V9.1a7.534,7.534,0,0,0-7.6-7.6h-6A36.879,36.879,0,0,0,101.1,1.6Z" transform="translate(-101.1 -1.459)"/></g><g transform="translate(55.207 0.5)"><path class="a" d="M55.1,1.6V23.4h4.8V5.6h5.9a3.328,3.328,0,0,1,3.3,3.3,3.471,3.471,0,0,1-3.3,3.3H61.6L69,23.4h6l-5.4-7.9A7.17,7.17,0,0,0,74,8.9a7.427,7.427,0,0,0-7.5-7.5H60C58.4,1.4,56.8,1.5,55.1,1.6Z" transform="translate(-55.1 -1.4)"/></g></svg>