<svg width="327" height="30" viewBox="0 0 327 30" fill="none" xmlns="http://www.w3.org/2000/svg">
<path d="M32.7 14.6C32.7 6.6 26.1 0 18 0H0V29.2H18C26.1 29.3 32.7 22.7 32.7 14.6" fill="#009BA3"/>
<path d="M326.5 14.6C326.5 6.5 320 0 311.9 0C303.8 0 297.3 6.5 297.3 14.6C297.3 22.7 303.9 29.2 311.9 29.2C320 29.2 326.5 22.7 326.5 14.6" fill="#009BA3"/>
<path d="M262.4 14.6C262.4 6.5 255.9 0 247.8 0H215.8C207.7 0 201.2 6.5 201.2 14.6C201.2 22.7 207.7 29.2 215.8 29.2H247.8C255.9 29.3 262.4 22.7 262.4 14.6" fill="#009BA3"/>
<path d="M64.6999 14.6C64.6999 6.6 58.0999 0 50.0999 0C41.9999 0 35.3999 6.6 35.3999 14.6C35.3999 22.7 41.8999 29.2 49.9999 29.2C58.0999 29.3 64.6999 22.7 64.6999 14.6" fill="#93C11C"/>
<path d="M294.5 14.6C294.5 6.5 288 0 279.9 0C271.8 0 265.3 6.5 265.3 14.6C265.3 22.7 271.8 29.2 279.9 29.2C287.9 29.3 294.5 22.7 294.5 14.6" fill="#93C11C"/>
<path fill-rule="evenodd" clip-rule="evenodd" d="M184.5 10.1L186.8 13.8H192.6C192.6 13.8 189.2 9.1 187.4 6.7L192.6 0H187L184.6 3.3L182.2 0H176.5L181.7 6.7C179.9 9.1 176.5 13.8 176.5 13.8H182.3L184.5 10.1ZM114 16C112.7 15.4 111.5 15.3 109.9 15.3C106 15.3 102.5 18.5 102.5 22.5C102.5 26.6 105.7 29.6 110.3 29.6C111.9 29.6 112.7 29.5 114 28.8V24.8C113.2 25.3 112.3 25.7 111 25.7C109.2 25.7 107.7 24.2 107.7 22.4C107.7 20.5 109.2 19 111.1 19C112.2 19 113.2 19.4 114 20V16ZM141.1 15.6H146.1V29.4H141.9L136.1 23.6V29.4H131.1V15.6H135.1L141.1 21.5V15.6ZM192.6 19.3V15.6H179.3C174.1 15.6 171.8 18.5 171.8 22.5C171.8 26.5 175.3 29.6 179.3 29.6C180.7 29.6 181.6 29.4 182.8 28.7V25C182 25.7 181.3 25.9 180.2 25.9C178.3 25.8 176.7 24.4 176.7 22.5C176.7 20.8 177.7 19.2 179.7 19.2H184.2V29.4H189.2V19.3H192.6ZM146.9 15.6H158.7H158.8V19.2H155.4V29.4H150.4V19.3H146.9V15.6ZM175.9 13.9H170.5V0.1H175.9V13.9ZM121.7 0.1H116.7V13.9H121.7V8.9H126V13.9H131V0.1H126V4.8H121.7V0.1ZM163.8 0.1H168.7V13.8H164.5L158.6 8V13.9H153.6V0.1H157.6L163.8 5.9V0.1ZM87.8001 20.6V18.1C87.8001 16.7 88.9001 16.2 88.9001 16.2C89.9001 15.5 90.9001 14.2 90.9001 12.7C90.9001 11.4 90.4001 10.4 89.5001 9.6C89.3261 9.45087 89.1398 9.32027 88.958 9.19285C88.4083 8.80762 87.9001 8.45145 87.9001 7.7V5C87.9001 4.2 87.9001 3.4 89.4001 3.4C94.3001 3.4 98.4001 7.9 98.4001 12.5C98.4001 17.2 94.6001 21.8 89.4001 21.8C87.7001 21.8 87.8001 20.6 87.8001 20.6ZM85.7001 24.6V18.1C85.7001 16.8 84.6001 16.2 84.6001 16.2C83.6001 15.5 82.6001 14.3 82.6001 12.7C82.7001 11.4 83.1001 10.5 84.1001 9.6C84.3157 9.38437 84.5503 9.21618 84.7718 9.05744C85.2692 8.70087 85.7001 8.39195 85.7001 7.7V5C85.7001 4.2 85.7001 3.4 84.2001 3.4H77.5001C76.7001 3.4 76.0001 4.1 76.0001 4.9V24.6C76.0001 25.4 76.8001 26.1 77.6001 26.1H84.2001C85.0001 26.1 85.7001 25.4 85.7001 24.6ZM86.8001 14.6C85.7001 14.6 84.8001 13.7 84.8001 12.6C84.8001 11.5 85.7001 10.6 86.8001 10.6C87.9001 10.6 88.8001 11.5 88.8001 12.6C88.8001 13.7 87.9001 14.6 86.8001 14.6ZM72.6001 2.1C72.6001 1 73.5001 0.1 74.6001 0.1H99.5001C100.6 0.1 101.5 1 101.5 2.1V27.3C101.5 28.4 100.6 29.3 99.5001 29.3H74.6001C73.5001 29.3 72.6001 28.4 72.6001 27.3V2.1ZM108.4 3.4H109.2C110.3 3.4 111 4 111 5C111 5.9 110.3 6.6 109.2 6.6H108.4V3.4ZM103.3 0.1H110.2C114 0.1 115.9 2 115.9 5C115.9 7.9 113 9.9 110.2 9.9H108.3V13.9H103.3V0.1ZM139.6 4.1C141.1 4.1 142 5.6 142 7.1C142 8.5 141.1 10 139.6 10C138.2 10 137.3 8.6 137.3 7.1C137.3 5.6 138.1 4.1 139.6 4.1ZM139.6 0.1H152.1V3.4H146.5V5.3H152.1V8.6H146.5V10.5H152.1V13.9H139.6C137.1 13.9 135.5 13 134.3 11.9C133.3 10.9 132.4 9 132.4 7C132.4 4.9 132.9 3.2 134.3 1.9C135.7 0.6 137.1 0.1 139.6 0.1ZM163.4 23.7L164.5 20.3L165.6 23.7H163.4ZM161.8 15.6H167.1L172.7 29.4H167.6L166.6 26.9H162.2L161.2 29.4H156.1L161.8 15.6ZM122.4 19.5C123.9 19.5 124.8 21 124.8 22.6C124.8 24.1 123.9 25.6 122.4 25.6C120.9 25.6 120 24.1 120 22.6C120 21 120.9 19.5 122.4 19.5ZM122.4 15.3C127 15.3 129.9 18.4 129.9 22.5C129.9 26.5 127 29.6 122.4 29.6C117.9 29.6 115 26.5 115 22.5C115 18.5 118 15.3 122.4 15.3Z" fill="black"/>
</svg>
